<svg xmlns="http://www.w3.org/2000/svg" width="27.19" height="35.62" viewBox="0 0 27.19 35.62">
  <metadata><?xpacket begin="﻿" id="W5M0MpCehiHzreSzNTczkc9d"?>
<x:xmpmeta xmlns:x="adobe:ns:meta/" x:xmptk="Adobe XMP Core 5.6-c138 79.159824, 2016/09/14-01:09:01        ">
   <rdf:RDF xmlns:rdf="http://www.w3.org/1999/02/22-rdf-syntax-ns#">
      <rdf:Description rdf:about=""/>
   </rdf:RDF>
</x:xmpmeta>
                                                                                                    
                                                                                                    
                                                                                                    
                                                                                                    
                                                                                                    
                                                                                                    
                                                                                                    
                                                                                                    
                                                                                                    
                                                                                                    
                                                                                                    
                                                                                                    
                                                                                                    
                                                                                                    
                                                                                                    
                                                                                                    
                                                                                                    
                                                                                                    
                                                                                                    
                                                                                                    
                           
<?xpacket end="w"?></metadata>
<defs>
    <style>
      .cls-1 {
        fill: #89bbff;
        fill-rule: evenodd;
      }
    </style>
  </defs>
  <path id="question" class="cls-1" d="M1461.31,1754.82c0,1.25-.75,2.06-2.25,2.44a32.175,32.175,0,0,0-4.12,1.5,4.088,4.088,0,0,0-2.06,3.94v8.25h7.87v-5.63a2.046,2.046,0,0,1,.19-0.94,2.175,2.175,0,0,1,1.5-.37,8.364,8.364,0,0,0,6-2.63q2.055-2.055,2.06-6.18a8.1,8.1,0,0,0-4.73-7.69,17.293,17.293,0,0,0-8.58-2.06q-13.875,0-13.88,13.12h8.39v-1.5a4.5,4.5,0,0,1,1.36-3.37,5.324,5.324,0,0,1,3.57-1.13q4.68,0,4.68,2.25h0Zm-8.62,19.5v4.88l1.87,1.87h5.02l1.92-1.87v-4.88l-1.92-1.87h-5.02Z" transform="translate(-1443.31 -1745.44)"/>
</svg>
